<svg width="28" height="28" viewBox="0 0 28 28" fill="none" xmlns="http://www.w3.org/2000/svg">
<rect width="28" height="28" fill="white"/>
<path d="M5.60915 16.8C7.06588 16.8 7.99775 16.336 8.40478 15.4081C8.53331 15.1276 8.59758 14.8362 8.59758 14.5341C8.59758 13.563 7.92277 12.7322 6.57316 12.0416C6.29467 11.8906 5.83409 11.6748 5.19141 11.3942C3.49904 10.6605 2.37436 9.98073 1.81738 9.35491C1.21755 8.66435 0.917633 7.85511 0.917633 6.92717C0.917633 5.30867 1.79595 4.18651 3.55259 3.56069C4.34523 3.28015 5.21283 3.13988 6.15542 3.13988C7.69784 3.13988 8.96176 3.442 9.9472 4.04624C9.9472 3.42042 10.1079 3.06435 10.4292 2.97803C10.5363 2.95646 10.6541 2.94567 10.7827 2.94567V6.99191H9.88293C9.79724 5.00655 8.7154 4.00308 6.63743 3.9815C5.13786 3.9815 4.20598 4.44547 3.8418 5.37341C3.75611 5.61079 3.71326 5.85896 3.71326 6.11792C3.71326 7.04586 4.36665 7.84432 5.67342 8.51329C5.95191 8.64277 6.40178 8.83699 7.02303 9.09595C8.73683 9.82967 9.87222 10.5094 10.4292 11.1353C11.0719 11.869 11.3932 12.7214 11.3932 13.6925C11.3932 15.462 10.472 16.6597 8.62972 17.2855C7.87993 17.5445 7.04445 17.674 6.12329 17.674C4.43092 17.6524 2.9849 17.2855 1.78524 16.5734C1.78524 17.1345 1.646 17.4582 1.3675 17.5445C1.23897 17.5661 1.08901 17.5769 0.917633 17.5769V12.6566H1.91378C1.95662 15.3973 3.18841 16.7784 5.60915 16.8Z" fill="black"/>
<path d="M9.60156 28L20.5591 0H18.3098L7.3522 28H9.60156Z" fill="black"/>
<path d="M22.0013 22.3676C23.458 22.3676 24.3899 21.9037 24.7969 20.9757C24.9255 20.6952 24.9897 20.4039 24.9897 20.1017C24.9897 19.1306 24.3149 18.2998 22.9653 17.6092C22.6868 17.4582 22.2262 17.2424 21.5835 16.9618C19.8912 16.2281 18.7665 15.5484 18.2095 14.9225C17.6097 14.232 17.3098 13.4227 17.3098 12.4948C17.3098 10.8763 18.1881 9.75414 19.9447 9.12832C20.7374 8.84778 21.605 8.70751 22.5476 8.70751C24.09 8.70751 25.3539 9.00963 26.3393 9.61387C26.3393 8.98805 26.5 8.63198 26.8213 8.54566C26.9285 8.52408 27.0463 8.51329 27.1748 8.51329V12.5595H26.2751C26.1894 10.5742 25.1075 9.57071 23.0296 9.54913C21.53 9.54913 20.5981 10.0131 20.2339 10.941C20.1482 11.1784 20.1054 11.4266 20.1054 11.6855C20.1054 12.6135 20.7588 13.4119 22.0656 14.0809C22.344 14.2104 22.7939 14.4046 23.4152 14.6636C25.129 15.3973 26.2644 16.0771 26.8213 16.7029C27.464 17.4366 27.7854 18.289 27.7854 19.2601C27.7854 21.0297 26.8642 22.2274 25.0219 22.8532C24.2721 23.1121 23.4366 23.2416 22.5154 23.2416C20.8231 23.22 19.377 22.8532 18.1774 22.141C18.1774 22.7021 18.0381 23.0258 17.7596 23.1121C17.6311 23.1337 17.4811 23.1445 17.3098 23.1445V18.2243H18.3059C18.3488 20.9649 19.5805 22.3461 22.0013 22.3676Z" fill="black"/>
</svg>
